{
	"asset":{
		"generator":"Khronos glTF Blender I/O v4.5.49",
		"version":"2.0"
	},
	"scene":0,
	"scenes":[
		{
			"name":"Scene",
			"nodes":[
				8
			]
		}
	],
	"nodes":[
		{
			"mesh":0,
			"name":"Body_Plastic-glossy_0.003"
		},
		{
			"mesh":1,
			"name":"Body_Plastic-white_0.001"
		},
		{
			"children":[
				0,
				1
			],
			"name":"Body",
			"rotation":[
				-0.70710688829422,
				0,
				0,
				0.7071066498756409
			],
			"scale":[
				100,
				99.99999237060547,
				99.99999237060547
			]
		},
		{
			"name":"Earth",
			"rotation":[
				-0.70710688829422,
				0,
				0,
				0.7071066498756409
			],
			"scale":[
				100,
				99.99999237060547,
				99.99999237060547
			],
			"translation":[
				0,
				-187.24224853515625,
				19.859519958496094
			]
		},
		{
			"mesh":2,
			"name":"Plug_Metal glossy_0"
		},
		{
			"children":[
				4
			],
			"name":"Plug",
			"rotation":[
				-0.70710688829422,
				0,
				0,
				0.7071066498756409
			],
			"scale":[
				100,
				99.99999237060547,
				99.99999237060547
			],
			"translation":[
				0.08648407459259033,
				-234.9999542236328,
				-28.721097946166992
			]
		},
		{
			"children":[
				2,
				3,
				5
			],
			"name":"RootNode"
		},
		{
			"children":[
				6
			],
			"name":"4447152e2d1c4425a7984259860cd998.fbx",
			"rotation":[
				0.70710688829422,
				0,
				0,
				0.7071066498756409
			],
			"scale":[
				0.009999999776482582,
				0.010000000707805157,
				0.010000000707805157
			]
		},
		{
			"children":[
				7
			],
			"name":"Sketchfab_model",
			"rotation":[
				-0.70710688829422,
				0,
				0,
				0.7071066498756409
			],
			"translation":[
				-0.007406502962112427,
				-0.08590726554393768,
				-0.04305850714445114
			]
		}
	],
	"materials":[
		{
			"doubleSided":true,
			"name":"Plastic-glossy",
			"pbrMetallicRoughness":{
				"baseColorTexture":{
					"index":0
				},
				"metallicFactor":0,
				"metallicRoughnessTexture":{
					"index":1
				}
			}
		},
		{
			"doubleSided":true,
			"name":"Plastic-white",
			"normalTexture":{
				"index":2
			},
			"pbrMetallicRoughness":{
				"baseColorTexture":{
					"index":3
				},
				"metallicFactor":0,
				"metallicRoughnessTexture":{
					"index":4
				}
			}
		},
		{
			"doubleSided":true,
			"name":"Metal_glossy",
			"normalTexture":{
				"index":5
			},
			"pbrMetallicRoughness":{
				"baseColorFactor":[
					0.800000011920929,
					0.800000011920929,
					0.800000011920929,
					1
				],
				"metallicRoughnessTexture":{
					"index":6
				}
			}
		}
	],
	"meshes":[
		{
			"name":"Body_Plastic-glossy_0.012",
			"primitives":[
				{
					"attributes":{
						"POSITION":0,
						"NORMAL":1,
						"TEXCOORD_0":2
					},
					"indices":3,
					"material":0
				}
			]
		},
		{
			"name":"Body_Plastic-white_0.001",
			"primitives":[
				{
					"attributes":{
						"POSITION":4,
						"NORMAL":5,
						"TEXCOORD_0":6
					},
					"indices":7,
					"material":1
				}
			]
		},
		{
			"name":"Plug_Metal glossy_0",
			"primitives":[
				{
					"attributes":{
						"POSITION":8,
						"NORMAL":9,
						"TEXCOORD_0":10
					},
					"indices":11,
					"material":2
				}
			]
		}
	],
	"textures":[
		{
			"sampler":0,
			"source":0
		},
		{
			"sampler":0,
			"source":1
		},
		{
			"sampler":0,
			"source":2
		},
		{
			"sampler":0,
			"source":0
		},
		{
			"sampler":0,
			"source":1
		},
		{
			"sampler":0,
			"source":3
		},
		{
			"sampler":0,
			"source":4
		}
	],
	"images":[
		{
			"mimeType":"image/png",
			"name":"Image_0",
			"uri":"Image_0.png"
		},
		{
			"mimeType":"image/png",
			"name":"Image_1",
			"uri":"Image_1.png"
		},
		{
			"mimeType":"image/png",
			"name":"Image_2",
			"uri":"Image_2.png"
		},
		{
			"mimeType":"image/png",
			"name":"Image_4",
			"uri":"Image_4.png"
		},
		{
			"mimeType":"image/png",
			"name":"Image_3",
			"uri":"Image_3.png"
		}
	],
	"accessors":[
		{
			"bufferView":0,
			"componentType":5126,
			"count":1076,
			"max":[
				2.1058311462402344,
				2.105815887451172,
				1.5016343593597412
			],
			"min":[
				-2.1058311462402344,
				-2.105846405029297,
				-0.6440889239311218
			],
			"type":"VEC3"
		},
		{
			"bufferView":1,
			"componentType":5126,
			"count":1076,
			"type":"VEC3"
		},
		{
			"bufferView":2,
			"componentType":5126,
			"count":1076,
			"type":"VEC2"
		},
		{
			"bufferView":3,
			"componentType":5123,
			"count":2838,
			"type":"SCALAR"
		},
		{
			"bufferView":4,
			"componentType":5126,
			"count":403,
			"max":[
				2.5,
				2.5,
				1.5000004768371582
			],
			"min":[
				-2.5,
				-2.5,
				-1.5
			],
			"type":"VEC3"
		},
		{
			"bufferView":5,
			"componentType":5126,
			"count":403,
			"type":"VEC3"
		},
		{
			"bufferView":6,
			"componentType":5126,
			"count":403,
			"type":"VEC2"
		},
		{
			"bufferView":7,
			"componentType":5123,
			"count":1632,
			"type":"SCALAR"
		},
		{
			"bufferView":8,
			"componentType":5126,
			"count":946,
			"max":[
				0.7488537430763245,
				0.30000004172325134,
				0.8499999046325684
			],
			"min":[
				-0.7488537430763245,
				-0.29999998211860657,
				-0.9082176685333252
			],
			"type":"VEC3"
		},
		{
			"bufferView":9,
			"componentType":5126,
			"count":946,
			"type":"VEC3"
		},
		{
			"bufferView":10,
			"componentType":5126,
			"count":946,
			"type":"VEC2"
		},
		{
			"bufferView":11,
			"componentType":5123,
			"count":3360,
			"type":"SCALAR"
		}
	],
	"bufferViews":[
		{
			"buffer":0,
			"byteLength":12912,
			"byteOffset":0,
			"target":34962
		},
		{
			"buffer":0,
			"byteLength":12912,
			"byteOffset":12912,
			"target":34962
		},
		{
			"buffer":0,
			"byteLength":8608,
			"byteOffset":25824,
			"target":34962
		},
		{
			"buffer":0,
			"byteLength":5676,
			"byteOffset":34432,
			"target":34963
		},
		{
			"buffer":0,
			"byteLength":4836,
			"byteOffset":40108,
			"target":34962
		},
		{
			"buffer":0,
			"byteLength":4836,
			"byteOffset":44944,
			"target":34962
		},
		{
			"buffer":0,
			"byteLength":3224,
			"byteOffset":49780,
			"target":34962
		},
		{
			"buffer":0,
			"byteLength":3264,
			"byteOffset":53004,
			"target":34963
		},
		{
			"buffer":0,
			"byteLength":11352,
			"byteOffset":56268,
			"target":34962
		},
		{
			"buffer":0,
			"byteLength":11352,
			"byteOffset":67620,
			"target":34962
		},
		{
			"buffer":0,
			"byteLength":7568,
			"byteOffset":78972,
			"target":34962
		},
		{
			"buffer":0,
			"byteLength":6720,
			"byteOffset":86540,
			"target":34963
		}
	],
	"samplers":[
		{
			"magFilter":9729,
			"minFilter":9987
		}
	],
	"buffers":[
		{
			"byteLength":93260,
			"uri":"scene.bin"
		}
	]
}
